						<svg>
							<g
								transform="translate(0.000000,223.000000) scale(0.100000,-0.100000)"
								fill="rgb(102,16,242)"
								stroke="none"
							>
								<path d="M1188 2154 c-16 -212 -182 -330 -417 -295 -137 21 -335 139 -411 245 -14 20 -29 36 -34 36 -5 0 -78 -23 -162 -51 l-154 -51 0 -653 c0 -359 -3 -660 -6 -669 -12 -32 13 -12 72 57 147 174 403 346 627 423 265 91 548 115 848 74 154 -20 312 -56 399 -89 l54 -20 14 22 c30 44 112 117 161 141 92 47 181 43 283 -12 70 -37 92 -88 85 -193 -5 -75 -4 -78 14 -68 24 12 71 76 89 120 14 33 16 33 93 14 23 -6 31 1 75 61 84 113 172 312 172 386 0 100 -503 325 -872 388 -38 7 -66 16 -63 20 3 5 44 8 91 7 47 -1 88 1 90 5 7 10 -194 85 -302 112 -167 42 -220 48 -485 53 l-256 5 -5 -68z m532 12 c112 -18 292 -61 322 -77 15 -8 16 -13 6 -35 -11 -23 -10 -29 9 -43 11 -10 88 -35 169 -56 267 -68 469 -146 619 -240 104 -64 112 -75 97 -133 -17 -64 -92 -218 -142 -293 l-42 -61 -45 5 c-40 4 -50 0 -80 -26 -18 -16 -35 -28 -37 -26 -1 2 -11 26 -20 52 -37 100 -140 161 -271 161 -93 0 -165 -33 -249 -114 -34 -33 -69 -60 -77 -60 -8 0 -59 13 -115 29 -250 72 -591 100 -827 67 -360 -51 -650 -187 -893 -418 -50 -48 -94 -85 -98 -81 -8 8 -8 1156 0 1177 4 10 56 32 136 58 l129 41 62 -60 c85 -82 131 -115 216 -158 197 -99 418 -80 540 46 51 53 78 107 95 190 9 45 18 65 32 70 32 13 353 2 464 -15z" />
								<path d="M380 2202 c0 -17 147 -161 200 -196 86 -56 159 -78 270 -79 71 -1 105 3 135 16 83 37 129 105 141 210 l7 57 -377 0 c-207 0 -376 -4 -376 -8z m689 -41 c33 -21 -14 -128 -73 -166 -71 -46 -227 -37 -342 20 -82 40 -182 124 -170 143 9 14 563 17 585 3z" />
								<path d="M1025 1180 c-158 -25 -253 -50 -348 -94 -235 -107 -377 -268 -407 -461 -20 -128 5 -226 91 -352 82 -120 236 -225 367 -252 109 -22 382 -8 382 20 0 5 -4 9 -9 9 -15 0 -108 145 -129 202 -74 197 -28 406 122 567 154 164 421 232 727 186 56 -9 105 -18 110 -21 5 -3 9 6 9 20 0 14 7 44 16 66 9 23 15 42 13 44 -13 9 -262 59 -358 71 -160 21 -434 18 -586 -5z m672 -50 c170 -29 208 -41 208 -65 0 -17 -6 -20 -40 -17 -22 1 -119 3 -215 4 -203 2 -276 -13 -419 -83 -320 -158 -430 -564 -231 -855 21 -30 29 -49 22 -56 -5 -5 -38 -14 -73 -20 -130 -22 -346 49 -462 153 -58 51 -133 155 -160 222 -59 141 -8 342 119 470 142 143 357 229 664 267 127 15 448 4 587 -20z" />
								<path d="M1574 912 c-85 -26 -139 -60 -211 -134 -147 -154 -147 -318 2 -523 42 -58 55 -67 55 -36 0 31 75 105 142 142 56 30 72 34 138 34 64 0 83 -4 128 -29 50 -28 117 -90 139 -130 9 -17 14 -17 49 -6 123 40 268 152 416 323 l51 58 -41 39 c-41 39 -41 39 -27 73 23 55 36 124 27 147 -8 20 -10 19 -37 -20 -51 -73 -119 -117 -217 -140 -47 -11 -66 -11 -100 -1 -56 17 -121 85 -145 150 -10 28 -24 54 -33 57 -8 4 -73 8 -145 10 -104 3 -142 0 -191 -14z m271 -30 c34 -6 44 -14 65 -53 42 -78 77 -116 132 -143 28 -14 68 -26 87 -26 52 0 135 24 186 54 58 34 61 34 57 -3 -2 -21 5 -41 23 -66 27 -34 27 -35 9 -62 -57 -88 -270 -264 -360 -299 l-44 -17 -69 66 c-88 83 -156 111 -249 104 -77 -6 -172 -50 -231 -107 -23 -22 -47 -40 -54 -40 -20 0 -75 102 -93 170 -28 110 1 203 90 295 65 66 128 102 208 120 69 15 180 18 243 7z" />
							</g>
						</svg>